<?xml version="1.0" encoding="iso-8859-1"?>
<!-- Generator: Adobe Illustrator 19.0.0, SVG Export Plug-In . SVG Version: 6.00 Build 0)  -->
<svg version="1.1" id="&#x5716;&#x5C64;_1" xmlns="http://www.w3.org/2000/svg" xmlns:xlink="http://www.w3.org/1999/xlink" x="0px"
	 y="0px" viewBox="0 0 100 100" style="enable-background:new 0 0 100 100;" xml:space="preserve">
<g>
	<polygon style="fill:#FFFFFF;" points="-192.563,78.773 -207.394,92.74 -204.65,95.654 -192.563,84.271 -192.563,164.596 
		-188.561,164.596 -188.561,78.69 -192.563,78.69 	"/>
	<polygon style="fill:#FFFFFF;" points="-163.016,149.424 -163.016,107.014 -132.546,103.673 -132.983,99.694 -163.016,102.987 
		-163.016,78.69 -167.018,78.69 -167.018,103.426 -180.16,104.867 -179.724,108.845 -167.018,107.452 -167.018,151.118 
		-166.981,151.118 -153.125,164.996 -153.125,165.042 -133.092,165.042 -133.092,161.04 -151.419,161.04 	"/>
	
		<rect x="-157.136" y="85.205" transform="matrix(0.7049 0.7093 -0.7093 0.7049 18.4925 129.9676)" style="fill:#FFFFFF;" width="20.393" height="4.003"/>
</g>
<path style="fill:#FFFFFF;" d="M-237.546,35.309l-27.048-29.251h12.621V3.024V2.056v-12.241v-4.003V-25.72v-4.003h-4.003h-9.525
	V-40.02h16.271v-4.003h-44.75v1.581v2.422V3.479l-26.977,28.773l2.92,2.738l28.058-29.926h0.001V-40.02h20.473v10.297h-10.303
	h-4.003h-0.094v4.003h0.094v11.532h-0.094v4.003h0.094V2.056h-0.094v4.003h13.583l-27.048,29.251l3.01,2.783l24.855-26.88v27.328
	h4.003V11.116l24.945,26.976L-237.546,35.309z M-279.807-25.72h23.83v11.532h-23.83V-25.72z M-279.807-10.185h23.83V2.056h-23.83
	V-10.185z"/>
<g>
	<path style="fill:#FFFFFF;" d="M-186.013,15.986h0.056v-51.005v-0.09v-3.913h-20.824v3.913v0.09v47.035v3.97v0.032h20.768V15.986z
		 M-202.779-35.019h12.819v47.035h-12.819V-35.019z"/>
	<polygon style="fill:#FFFFFF;" points="-130.564,31.972 -158.562,1.106 -158.562,-3.993 -143.403,-3.993 -143.403,-7.996 
		-158.562,-7.996 -158.562,-27.474 -143.403,-27.474 -143.403,-31.477 -158.562,-31.477 -158.562,-47.04 -162.564,-47.04 
		-162.564,-31.477 -177.724,-31.477 -177.724,-27.474 -162.564,-27.474 -162.564,-7.996 -177.724,-7.996 -177.724,-3.993 
		-162.564,-3.993 -162.564,1.106 -190.562,31.972 -187.597,34.661 -162.564,7.064 -162.564,39.003 -158.562,39.003 -158.562,7.064 
		-133.529,34.661 	"/>
</g>
<g>
	<path style="fill:#FFFFFF;" d="M-311.128,91.593v0.415v20.995v4.003v21.006v3.968v0.035h21.151v-0.035v-3.968v-21.006v-4.003
		V92.008v-0.729v-3.273h-21.151V91.593z M-293.979,138.012h-13.146v-21.006h13.146V138.012z M-293.979,113.004h-13.146V92.008
		h13.146V113.004z"/>
	<polygon style="fill:#FFFFFF;" points="-247.309,88.888 -247.309,84.885 -262.468,84.885 -262.468,78.754 -266.471,78.754 
		-266.471,84.885 -281.63,84.885 -281.63,88.888 -266.471,88.888 -266.471,104.759 -281.63,104.759 -281.63,108.761 
		-260.229,108.761 -260.229,122.497 -281.63,122.497 -281.63,126.5 -260.229,126.5 -260.229,165.897 -256.227,165.897 
		-256.227,126.5 -247.309,126.5 -247.309,122.497 -256.227,122.497 -256.227,108.761 -247.309,108.761 -247.309,104.759 
		-262.468,104.759 -262.468,88.888 	"/>
	
		<rect x="-283.976" y="141.206" transform="matrix(-0.7051 -0.7091 0.7091 -0.7051 -567.949 50.2019)" style="fill:#FFFFFF;" width="20.882" height="4.003"/>
</g>
<g>
	<g>
		<path style="fill:#FFFFFF;" d="M-658.116,52.185c0.143-0.472,0.272-0.948,0.43-1.415c1.118-3.307,4.376-5.514,7.876-5.348
			c0.396,0.019,0.793,0.006,1.189,0.006c10.886,0,21.773,0,32.659,0c0.338,0,0.676,0,1.072,0c0-3.054,0-6.026,0-9.129
			c-0.335,0-0.666,0-0.996,0c-8.403,0-16.805,0.002-25.208-0.002c-2.49-0.001-4.707-0.734-6.357-2.675
			c-1.804-2.122-2.237-4.581-1.329-7.197c0.939-2.707,2.986-4.213,5.727-4.804c0.715-0.154,1.468-0.177,2.204-0.178
			c8.297-0.012,16.594-0.007,24.891-0.008c0.337,0,0.674,0,1.068,0c0-3.053,0-6.02,0-9.078c-0.35,0-0.66,0-0.969,0
			c-4.043,0-8.086,0.022-12.128-0.007c-3.789-0.027-6.814-2.436-7.648-6.025c-1.023-4.403,2.096-8.646,6.61-8.983
			c0.553-0.041,1.109-0.053,1.663-0.053c16.726-0.003,33.452-0.002,50.178-0.002c0.34,0,0.681,0,1.002,0
			c0.068,0.13,0.133,0.197,0.133,0.264c-0.027,3.301,0.008,6.604-0.116,9.901c-0.074,1.953-1.056,2.921-2.998,3.007
			c-3.006,0.133-6.02,0.097-9.029,0.17c-2.285,0.056-4.521,0.411-6.625,1.364c-3.367,1.526-5.166,4.21-5.245,7.835
			c-0.127,5.784-0.136,11.575-0.005,17.359c0.128,5.662,4.341,9.876,9.992,10.268c0.974,0.068,1.952,0.104,2.928,0.104
			c14.718,0.006,29.436,0.015,44.154-0.011c1.472-0.003,2.969-0.09,4.409-0.373c3.322-0.653,4.995-2.438,5.549-5.767
			c0.194-1.168,0.331-2.361,0.335-3.543c0.031-8.059,0.021-16.118,0.022-24.177c0-0.204-0.021-0.409-0.034-0.652
			c-4.716,0-9.38,0-14.165,0c0,0.353,0.002,0.684,0,1.015c-0.032,5.284-0.058,10.568-0.105,15.852
			c-0.005,0.55-0.09,1.107-0.207,1.647c-0.508,2.35-1.998,3.534-4.807,3.799c-1.05,0.099-2.108,0.162-3.163,0.163
			c-8.165,0.013-16.33,0.022-24.494-0.011c-1.041-0.004-2.114-0.147-3.114-0.43c-1.693-0.479-2.711-1.741-2.817-3.458
			c-0.131-2.13-0.123-4.285,0.047-6.411c0.179-2.245,1.494-3.339,3.89-3.424c2.217-0.079,4.439-0.003,6.657-0.055
			c1.978-0.047,3.966-0.071,5.929-0.29c4.94-0.552,7.658-3.44,7.814-8.44c0.151-4.857,0.104-9.721,0.144-14.582
			c0.003-0.336,0-0.672,0-1.076c0.4-0.018,0.708-0.044,1.016-0.044c15.933-0.002,31.867,0.007,47.8-0.008
			c4.199-0.004,8.202,0.738,11.807,2.997c4.555,2.853,7.207,7.077,8.304,12.238c0.501,2.357,0.709,4.81,0.75,7.225
			c0.109,6.393,0.05,12.788,0.072,19.182c0.002,0.497,0.071,1.003,0.186,1.487c0.307,1.29,1.1,1.974,2.434,2.127
			c0.524,0.06,1.054,0.094,1.581,0.091c3.882-0.019,7.764-0.055,11.646-0.077c3.512-0.019,6.906,2.922,7.481,6.47
			c0.808,4.987-2.815,9.291-7.878,9.311c-5.39,0.022-10.781,0.022-16.171-0.004c-2.523-0.012-5.005-0.349-7.36-1.317
			c-4.505-1.853-6.944-5.381-7.842-10.019c-0.359-1.852-0.492-3.773-0.503-5.664c-0.05-9.063-0.022-18.126-0.022-27.19
			c0-0.34,0-0.68,0-1.083c-3.157,0-6.253,0-9.432,0c0,0.37,0,0.707,0,1.044c0,9.248,0.003,18.496-0.002,27.745
			c-0.001,2.278-0.168,4.54-0.81,6.741c-1.83,6.264-6.042,10.034-12.318,11.459c-2.04,0.463-4.183,0.647-6.279,0.655
			c-15.299,0.058-30.598,0.039-45.897,0.045c-22.275,0.009-44.55,0.019-66.825,0.028c-1.96,0.001-3.839-0.305-5.491-1.465
			c-1.679-1.179-2.723-2.765-3.096-4.789c-0.027-0.148-0.107-0.287-0.163-0.43C-658.116,53.454-658.116,52.819-658.116,52.185z"/>
		<path style="fill:#FFFFFF;" d="M-542.848-46.277c0.379,0.099,0.757,0.201,1.136,0.298c3.602,0.916,6.156,3.91,6.306,7.617
			c0.133,3.296,0.103,6.598,0.144,9.898c0.004,0.311,0.001,0.623,0.001,1.042c0.388,0,0.696,0,1.004,0
			c5.576,0,11.151-0.019,16.727,0.008c3.873,0.019,6.888,2.45,7.714,6.138c1.035,4.625-2.493,9.205-7.231,9.383
			c-0.343,0.013-0.687,0.013-1.03,0.013c-31.895,0.001-63.79-0.005-95.684,0.01c-3.153,0.001-5.68-1.119-7.33-3.855
			c-3.01-4.989,0.542-11.568,6.361-11.659c6.631-0.103,13.265-0.032,19.897-0.037c0.336,0,0.672,0,1.109,0c0-0.379,0-0.66,0-0.942
			c0.002-3.197-0.049-6.396,0.017-9.592c0.129-6.203,6.789-10.14,12.269-7.243c2.805,1.483,4.383,3.884,4.488,7.07
			c0.108,3.3,0.052,6.605,0.035,9.908c-0.003,0.62,0.179,0.813,0.809,0.811c7.716-0.019,15.432-0.012,23.148-0.015
			c0.23,0,0.461-0.033,0.777-0.056c0-0.33,0-0.613,0-0.896c0-3.012-0.003-6.025,0.001-9.037c0.006-4.575,2.668-7.813,7.159-8.721
			c0.096-0.019,0.181-0.093,0.272-0.142C-544.116-46.277-543.482-46.277-542.848-46.277z"/>
		<path style="fill:#FFFFFF;" d="M-566.56,96.278c0.398,0,0.759,0,1.121,0c20.955,0,41.909,0,62.864,0
			c3.598,0,6.35,1.498,7.954,4.756c2.671,5.426-1.445,12.086-7.485,12.203c-0.185,0.004-0.37,0.004-0.555,0.004
			c-40.086,0-80.173-0.006-120.259,0.013c-2.686,0.001-5.014-0.749-6.789-2.801c-2.222-2.568-2.743-5.524-1.438-8.643
			c1.317-3.147,3.794-4.917,7.23-5.053c3.008-0.119,6.024-0.042,9.036-0.043c10.517-0.002,21.034,0.002,31.551-0.004
			c1.658-0.001,1.448,0.205,1.45-1.411c0.008-6.263,0-12.525,0.007-18.788c0.001-0.659-0.011-1.331,0.106-1.975
			c0.576-3.184,2.893-5.16,6.334-5.187c7.583-0.061,15.168-0.044,22.751-0.011c2.57,0.012,4.706,1.447,5.079,3.612
			c0.426,2.469,0.494,5.014-0.116,7.472c-0.54,2.175-2.463,3.544-4.952,3.604c-3.513,0.085-7.028,0.045-10.542,0.07
			c-0.58,0.004-1.163,0.033-1.738,0.107c-0.88,0.112-1.376,0.592-1.534,1.464c-0.08,0.44-0.129,0.892-0.131,1.338
			c-0.012,2.854-0.008,5.708-0.005,8.562C-566.621,95.774-566.587,95.979-566.56,96.278z"/>
		<path style="fill:#FFFFFF;" d="M-562.744,140.159c-11.679,0-23.358-0.04-35.036,0.035c-2.192,0.014-3.845-0.82-5.215-2.335
			c-2.335-2.581-2.95-5.592-1.64-8.822c1.333-3.284,3.914-5.002,7.442-5.292c0.289-0.024,0.581-0.021,0.871-0.021
			c22.353-0.001,44.707-0.002,67.06,0c3.987,0,7.14,2.09,8.406,5.552c1.544,4.224-0.572,9.001-4.75,10.667
			c-0.401,0.16-0.872,0.205-1.31,0.206C-538.858,140.161-550.801,140.159-562.744,140.159z"/>
		<path style="fill:#FFFFFF;" d="M-533.374,86.271c1.428-1.331,1.674-3.013,1.707-4.656c0.067-3.323,0-6.652-0.132-9.974
			c-0.036-0.906-0.498-1.796-0.776-2.732c0.046-0.004,0.239-0.035,0.433-0.035c14.665-0.002,29.331-0.009,43.996,0.002
			c4.75,0.004,8.257,3.066,8.931,7.743c0.685,4.751-3.207,9.435-8.009,9.633c-0.475,0.02-0.951,0.018-1.427,0.018
			c-14.586,0.001-29.172,0.001-43.758,0.001C-532.689,86.271-532.969,86.271-533.374,86.271z"/>
		<path style="fill:#FFFFFF;" d="M-596.712,70.141c-0.825,1.458-1.007,2.98-1.005,4.506c0.003,3.139,0.042,6.281,0.174,9.417
			c0.064,1.521,0.564,2.413,1.485,3.41c-0.242,0.026-0.433,0.064-0.623,0.064c-14.373,0.003-28.746,0.016-43.119-0.007
			c-3.802-0.006-6.64-1.75-8.117-5.257c-1.436-3.41-0.865-6.647,1.661-9.411c1.778-1.945,4.083-2.724,6.689-2.723
			c12.682,0.005,25.364,0.002,38.046,0.002C-599.945,70.141-598.37,70.141-596.712,70.141z"/>
	</g>
</g>
<g>
	<g>
		<path style="fill:#FFFFFF;" d="M-943.373,16.437c3.98-2.187,7.957-4.377,11.939-6.561c28.924-15.864,57.859-31.709,86.751-47.632
			c1.809-0.997,3.14-1.005,4.953-0.018c32.923,17.933,65.885,35.795,98.837,53.676c0.325,0.176,0.621,0.405,1.213,0.796
			c-68.097,0-135.835,0-203.572,0C-943.292,16.612-943.333,16.525-943.373,16.437z"/>
		<path style="fill:#FFFFFF;" d="M-938.931,24.169c20.223,0,40.324,0,60.594,0c0,4.402,0,8.805,0,13.43
			c-1.475,0.219-3.032,0.42-4.576,0.691c-1.007,0.177-2.015,0.397-2.99,0.702c-4.307,1.344-6.355,3.967-6.61,8.486
			c-0.102,1.82-0.135,3.645-0.131,5.468c0.04,21.029,0.092,42.058,0.144,63.087c0.012,4.819,2.357,8.024,7.012,9.23
			c2.296,0.595,4.689,0.818,7.188,1.234c0,3.884,0,7.891,0,12.011c-20.27,0-40.476,0-60.901,0c-0.031-0.518-0.09-1.059-0.092-1.6
			c-0.01-2.507-0.005-5.015-0.005-7.523c0-3.071,0.005-3.027,2.97-3.392c1.795-0.221,3.662-0.352,5.336-0.963
			c3.985-1.455,6.098-4.381,6.097-8.732c-0.007-22.795,0.021-45.591-0.011-68.386c-0.007-5.1-2.187-7.747-7.187-8.958
			c-1.769-0.428-3.571-0.742-5.375-0.991c-1.145-0.158-1.678-0.542-1.649-1.821c0.084-3.702,0.035-7.408,0.045-11.112
			C-939.071,24.808-939.002,24.585-938.931,24.169z"/>
		<path style="fill:#FFFFFF;" d="M-743.995,24.187c0,4.274,0.025,8.373-0.042,12.47c-0.006,0.371-0.548,0.967-0.933,1.054
			c-1.328,0.3-2.717,0.329-4.044,0.633c-1.49,0.342-3.009,0.716-4.388,1.351c-2.834,1.305-4.612,3.497-4.802,6.729
			c-0.133,2.273-0.274,4.552-0.266,6.827c0.072,21.031,0.258,42.061,0.207,63.091c-0.011,4.618,3.055,7.965,6.781,8.875
			c2.363,0.577,4.8,0.853,7.359,1.291c0,3.863,0,7.872,0,11.998c-20.311,0-40.562,0-61.004,0c0-3.831-0.032-7.579,0.055-11.323
			c0.008-0.34,0.746-0.869,1.212-0.958c2.336-0.444,4.791-0.475,7.025-1.202c4.588-1.492,6.271-5.115,6.262-9.709
			c-0.009-4.332-0.006-8.663-0.012-12.995c-0.023-17.554-0.046-35.108-0.07-52.662c-0.01-7.418-1.895-9.694-9.218-11.107
			c-1.286-0.248-2.596-0.388-3.862-0.709c-0.437-0.111-1.098-0.618-1.104-0.953c-0.076-4.199-0.049-8.4-0.049-12.7
			C-784.543,24.187-764.399,24.187-743.995,24.187z"/>
		<path style="fill:#FFFFFF;" d="M-871.972,24.152c20.364,0,40.47,0,60.735,0c0,4.463,0,8.916,0,13.47
			c-1.586,0.227-3.161,0.413-4.72,0.689c-1.062,0.188-2.125,0.434-3.149,0.771c-4,1.319-6.069,4.003-6.318,8.203
			c-0.112,1.877-0.172,3.759-0.166,5.639c0.065,21.032,0.146,42.063,0.228,63.095c0.02,5.029,2.26,8.037,7.141,9.274
			c2.247,0.57,4.583,0.79,7.021,1.192c0,3.864,0,7.878,0,12.015c-20.278,0-40.534,0-61.015,0c0-3.825-0.031-7.623,0.059-11.419
			c0.007-0.309,0.811-0.772,1.302-0.867c2.391-0.462,4.903-0.52,7.181-1.289c3.452-1.164,5.456-3.802,5.857-7.504
			c0.11-1.017,0.159-2.046,0.159-3.069c-0.014-21.602-0.038-43.203-0.063-64.805c-0.001-0.74-0.007-1.483-0.056-2.221
			c-0.305-4.591-2.309-7.091-6.785-8.248c-1.98-0.512-4.036-0.729-6.028-1.204c-0.517-0.123-1.313-0.701-1.322-1.085
			C-872.008,32.64-871.972,28.486-871.972,24.152z"/>
	</g>
</g>
<g>
	<path style="fill:#FFFFFF;" d="M-415.105,399.526c-1.881,2.55-3.334,5.135-5.351,7.159c-28.1,28.197-56.278,56.317-84.437,84.456
		c-5.538,5.534-11.038,11.105-16.626,16.587c-4.801,4.711-8.172,4.776-12.838,0.121c-34.075-34.001-68.127-68.023-102.151-102.074
		c-4.801-4.805-4.782-8.059-0.17-12.844c3.005-3.117,6.078-6.171,9.184-9.188c4.251-4.127,7.893-4.241,12.101-0.181
		c4.914,4.741,9.666,9.649,14.492,14.48c23.072,23.097,46.198,46.14,69.148,69.357c2.841,2.874,4.312,3.204,7.342,0.141
		c27.063-27.349,54.316-54.509,81.503-81.736c7.052-7.063,9.415-7.094,16.374-0.103c2.585,2.597,5.3,5.08,7.711,7.829
		C-417.46,395.086-416.593,397.076-415.105,399.526z"/>
</g>
</svg>
